<svg width="16" height="16" viewBox="0 0 16 16" fill="none" xmlns="http://www.w3.org/2000/svg">
<path d="M8 0C3.58852 0 0 3.58887 0 8C0 12.4111 3.58852 16 8 16C8.19235 16 8.34783 15.8442 8.34783 15.6522V12.8696C8.34783 12.6776 8.19235 12.5217 8 12.5217C5.50678 12.5217 3.47826 10.4932 3.47826 8C3.47826 5.50678 5.50678 3.47826 8 3.47826C8.19235 3.47826 8.34783 3.32243 8.34783 3.13043V0.347826C8.34783 0.155826 8.19235 0 8 0ZM8 6.26087C7.80765 6.26087 7.65217 6.4167 7.65217 6.6087V9.73913C7.65217 9.93113 7.80765 10.087 8 10.087H11.4783V13.5652C11.4783 13.7572 11.6337 13.913 11.8261 13.913H14.9565C15.1489 13.913 15.3043 13.7572 15.3043 13.5652V6.6087C15.3043 6.4167 15.1489 6.26087 14.9565 6.26087H8Z" fill="#3A8BB1"/>
</svg>
