<svg width="59" height="13" viewBox="0 0 59 13" fill="none" xmlns="http://www.w3.org/2000/svg">
  <path
    d="M6.804 0.576V2.22H4.572V9H2.52V2.22H0.288V0.576H6.804ZM14.1458 5.544C14.1458 5.736 14.1338 5.936 14.1098 6.144H9.46584C9.49784 6.56 9.62984 6.88 9.86184 7.104C10.1018 7.32 10.3938 7.428 10.7378 7.428C11.2498 7.428 11.6058 7.212 11.8058 6.78H13.9898C13.8778 7.22 13.6738 7.616 13.3778 7.968C13.0898 8.32 12.7258 8.596 12.2858 8.796C11.8458 8.996 11.3538 9.096 10.8098 9.096C10.1538 9.096 9.56984 8.956 9.05784 8.676C8.54584 8.396 8.14584 7.996 7.85784 7.476C7.56984 6.956 7.42584 6.348 7.42584 5.652C7.42584 4.956 7.56584 4.348 7.84584 3.828C8.13384 3.308 8.53384 2.908 9.04584 2.628C9.55784 2.348 10.1458 2.208 10.8098 2.208C11.4578 2.208 12.0338 2.344 12.5378 2.616C13.0418 2.888 13.4338 3.276 13.7138 3.78C14.0018 4.284 14.1458 4.872 14.1458 5.544ZM12.0458 5.004C12.0458 4.652 11.9258 4.372 11.6858 4.164C11.4458 3.956 11.1458 3.852 10.7858 3.852C10.4418 3.852 10.1498 3.952 9.90984 4.152C9.67784 4.352 9.53384 4.636 9.47784 5.004H12.0458ZM14.8204 5.652C14.8204 4.956 14.9604 4.348 15.2404 3.828C15.5284 3.308 15.9244 2.908 16.4284 2.628C16.9404 2.348 17.5244 2.208 18.1804 2.208C19.0204 2.208 19.7204 2.428 20.2804 2.868C20.8484 3.308 21.2204 3.928 21.3964 4.728H19.2124C19.0284 4.216 18.6724 3.96 18.1444 3.96C17.7684 3.96 17.4684 4.108 17.2444 4.404C17.0204 4.692 16.9084 5.108 16.9084 5.652C16.9084 6.196 17.0204 6.616 17.2444 6.912C17.4684 7.2 17.7684 7.344 18.1444 7.344C18.6724 7.344 19.0284 7.088 19.2124 6.576H21.3964C21.2204 7.36 20.8484 7.976 20.2804 8.424C19.7124 8.872 19.0124 9.096 18.1804 9.096C17.5244 9.096 16.9404 8.956 16.4284 8.676C15.9244 8.396 15.5284 7.996 15.2404 7.476C14.9604 6.956 14.8204 6.348 14.8204 5.652ZM26.61 2.232C27.378 2.232 27.994 2.488 28.458 3C28.922 3.504 29.154 4.2 29.154 5.088V9H27.114V5.364C27.114 4.916 26.998 4.568 26.766 4.32C26.534 4.072 26.222 3.948 25.83 3.948C25.438 3.948 25.126 4.072 24.894 4.32C24.662 4.568 24.546 4.916 24.546 5.364V9H22.494V0.12H24.546V3.204C24.754 2.908 25.038 2.672 25.398 2.496C25.758 2.32 26.162 2.232 26.61 2.232ZM32.6319 7.416H35.3199V9H30.5799V0.576H32.6319V7.416ZM39.3467 9.096C38.6907 9.096 38.0987 8.956 37.5707 8.676C37.0507 8.396 36.6387 7.996 36.3347 7.476C36.0387 6.956 35.8907 6.348 35.8907 5.652C35.8907 4.964 36.0427 4.36 36.3467 3.84C36.6507 3.312 37.0667 2.908 37.5947 2.628C38.1227 2.348 38.7147 2.208 39.3707 2.208C40.0267 2.208 40.6187 2.348 41.1467 2.628C41.6747 2.908 42.0907 3.312 42.3947 3.84C42.6987 4.36 42.8507 4.964 42.8507 5.652C42.8507 6.34 42.6947 6.948 42.3827 7.476C42.0787 7.996 41.6587 8.396 41.1227 8.676C40.5947 8.956 40.0027 9.096 39.3467 9.096ZM39.3467 7.32C39.7387 7.32 40.0707 7.176 40.3427 6.888C40.6227 6.6 40.7627 6.188 40.7627 5.652C40.7627 5.116 40.6267 4.704 40.3547 4.416C40.0907 4.128 39.7627 3.984 39.3707 3.984C38.9707 3.984 38.6387 4.128 38.3747 4.416C38.1107 4.696 37.9787 5.108 37.9787 5.652C37.9787 6.188 38.1067 6.6 38.3627 6.888C38.6267 7.176 38.9547 7.32 39.3467 7.32ZM48.0193 2.232C48.8033 2.232 49.4273 2.488 49.8913 3C50.3633 3.504 50.5993 4.2 50.5993 5.088V9H48.5593V5.364C48.5593 4.916 48.4433 4.568 48.2113 4.32C47.9793 4.072 47.6673 3.948 47.2753 3.948C46.8833 3.948 46.5713 4.072 46.3393 4.32C46.1073 4.568 45.9913 4.916 45.9913 5.364V9H43.9393V2.304H45.9913V3.192C46.1993 2.896 46.4793 2.664 46.8313 2.496C47.1833 2.32 47.5793 2.232 48.0193 2.232ZM54.5693 2.208C55.0413 2.208 55.4533 2.304 55.8053 2.496C56.1653 2.688 56.4413 2.94 56.6333 3.252V2.304H58.6853V8.988C58.6853 9.604 58.5613 10.16 58.3133 10.656C58.0733 11.16 57.7013 11.56 57.1973 11.856C56.7013 12.152 56.0813 12.3 55.3373 12.3C54.3453 12.3 53.5413 12.064 52.9253 11.592C52.3093 11.128 51.9573 10.496 51.8693 9.696H53.8973C53.9613 9.952 54.1133 10.152 54.3533 10.296C54.5933 10.448 54.8893 10.524 55.2413 10.524C55.6653 10.524 56.0013 10.4 56.2493 10.152C56.5053 9.912 56.6333 9.524 56.6333 8.988V8.04C56.4333 8.352 56.1573 8.608 55.8053 8.808C55.4533 9 55.0413 9.096 54.5693 9.096C54.0173 9.096 53.5173 8.956 53.0693 8.676C52.6213 8.388 52.2653 7.984 52.0013 7.464C51.7453 6.936 51.6173 6.328 51.6173 5.64C51.6173 4.952 51.7453 4.348 52.0013 3.828C52.2653 3.308 52.6213 2.908 53.0693 2.628C53.5173 2.348 54.0173 2.208 54.5693 2.208ZM56.6333 5.652C56.6333 5.14 56.4893 4.736 56.2013 4.44C55.9213 4.144 55.5773 3.996 55.1693 3.996C54.7613 3.996 54.4133 4.144 54.1253 4.44C53.8453 4.728 53.7053 5.128 53.7053 5.64C53.7053 6.152 53.8453 6.56 54.1253 6.864C54.4133 7.16 54.7613 7.308 55.1693 7.308C55.5773 7.308 55.9213 7.16 56.2013 6.864C56.4893 6.568 56.6333 6.164 56.6333 5.652Z"
    fill="#3A8BB1" />
</svg>